<?xml version="1.0" encoding="UTF-8" standalone="no"?>
<svg
   xmlns:dc="http://purl.org/dc/elements/1.1/"
   xmlns:cc="http://creativecommons.org/ns#"
   xmlns:rdf="http://www.w3.org/1999/02/22-rdf-syntax-ns#"
   xmlns:svg="http://www.w3.org/2000/svg"
   xmlns="http://www.w3.org/2000/svg"
   version="1.1"
   id="svg2"
   xml:space="preserve"
   width="873.12"
   height="623.67999"
   viewBox="0 0 873.12 623.67999"><metadata
     id="metadata8"><rdf:RDF><cc:Work
         rdf:about=""><dc:format>image/svg+xml</dc:format><dc:type
           rdf:resource="http://purl.org/dc/dcmitype/StillImage" /></cc:Work></rdf:RDF></metadata><defs
     id="defs6"><clipPath
       clipPathUnits="userSpaceOnUse"
       id="clipPath18"><path
         d="M 0,9.155e-6 H 654.84 V 467.76001 H 0 Z"
         clip-rule="evenodd"
         id="path16" /></clipPath><clipPath
       clipPathUnits="userSpaceOnUse"
       id="clipPath28"><path
         d="M 0,9.155e-6 H 654.84 V 467.76001 H 0 Z"
         clip-rule="evenodd"
         id="path26" /></clipPath><clipPath
       clipPathUnits="userSpaceOnUse"
       id="clipPath38"><path
         d="M 0,9.155e-6 H 654.84 V 467.76001 H 0 Z"
         clip-rule="evenodd"
         id="path36" /></clipPath><clipPath
       clipPathUnits="userSpaceOnUse"
       id="clipPath48"><path
         d="M 0,9.155e-6 H 654.84 V 467.76001 H 0 Z"
         clip-rule="evenodd"
         id="path46" /></clipPath><clipPath
       clipPathUnits="userSpaceOnUse"
       id="clipPath68"><path
         d="M 0,9.155e-6 H 654.84 V 467.76001 H 0 Z"
         clip-rule="evenodd"
         id="path66" /></clipPath><clipPath
       clipPathUnits="userSpaceOnUse"
       id="clipPath78"><path
         d="M 0,9.155e-6 H 654.84 V 467.76001 H 0 Z"
         clip-rule="evenodd"
         id="path76" /></clipPath><clipPath
       clipPathUnits="userSpaceOnUse"
       id="clipPath88"><path
         d="M 0,9.155e-6 H 654.84 V 467.76001 H 0 Z"
         clip-rule="evenodd"
         id="path86" /></clipPath></defs><g
     id="g10"
     transform="matrix(1.3333333,0,0,-1.3333333,0,623.68)"><g
       id="g12"><g
         id="g14"
         clip-path="url(#clipPath18)"><path
           d="m 0,0.01004 h 654.88 v 467.75 H 0 Z"
           style="fill:#ffffff;fill-opacity:1;fill-rule:evenodd;stroke:none"
           id="path20" /></g></g><g
       id="g22"><g
         id="g24"
         clip-path="url(#clipPath28)"><path
           d="M -36.875,389.93 C 113.84,323.06 269.94,332.21 386.23,353.56 502.52,374.91 599.71,549.95 660.86,518.03 661.35,471.13 713.41,66.56 717.65,-33.108 516.99,-41.084 405.29,-13.162 279.54,38.298 153.79,89.758 19.294,265.72 -36.875,389.93 Z"
           style="fill:#bfbfbf;fill-opacity:0.4;fill-rule:evenodd;stroke:none"
           id="path30" /></g></g><g
       id="g32"><g
         id="g34"
         clip-path="url(#clipPath38)"><path
           d="M -36.875,396.36 C 105.65,329.49 243.79,278.15 377.77,282.88 c 121.31,-2.52 255.36,130.3 313.18,98.39 0.46,-46.9 4.37,-161.85 8.38,-261.52 C 601.31,124.22 408.8,84.287 284.69,126.84 90.219,195.63 16.242,272.15 -36.875,396.36 Z"
           style="fill:#a6a6a6;fill-opacity:0.4;fill-rule:evenodd;stroke:none"
           id="path40" /></g></g><g
       id="g42"><g
         id="g44"
         clip-path="url(#clipPath48)"><path
           d="M -36.875,393.48 C 153.76,268.62 269.1,212.66 403.16,218.8 c 134.06,6.13 214.82,38.79 296.17,85.11 0.46,-46.9 -12.47,14.56 -8.46,-85.11 C 606.95,193.44 575.55,161.39 403.16,169.15 230.77,176.91 86.994,237.5 -36.875,393.48 Z"
           style="fill:#a6a6a6;fill-opacity:0.4;fill-rule:evenodd;stroke:none"
           id="path50" /></g></g><path
       d="M 287.95,345.83 158.68,70.754 29.405,345.83 Z"
       style="fill:#215968;fill-opacity:1;fill-rule:evenodd;stroke:none"
       id="path52" /><path
       d="M 554.84,345.83 425.57,70.754 296.3,345.83 Z"
       style="fill:#215968;fill-opacity:1;fill-rule:evenodd;stroke:none"
       id="path54" /><text
       transform="matrix(1,0,0,-1,542.42,299.4)"
       style="font-variant:normal;font-weight:900;font-size:114.98px;font-family:'Arial Black';-inkscape-font-specification:'Arial Heavy';writing-mode:lr-tb;fill:#215968;fill-opacity:1;fill-rule:nonzero;stroke:none"
       id="text58"><tspan
         x="0"
         y="0"
         id="tspan56">T</tspan></text><path
       d="m 0,0.01004 h 21.262 v 467.75 H 0 Z"
       style="fill:#215968;fill-opacity:1;fill-rule:evenodd;stroke:none"
       id="path60" /><g
       id="g62"><g
         id="g64"
         clip-path="url(#clipPath68)"><path
           d="M 1.1811e-4,446.5 H 654.88012 v 21.262 H 1.1811e-4 Z"
           style="fill:#215968;fill-opacity:1;fill-rule:evenodd;stroke:none"
           id="path70" /></g></g><g
       id="g72"><g
         id="g74"
         clip-path="url(#clipPath78)"><path
           d="m 633.61,0.01004 h 21.262 v 467.75 H 633.61 Z"
           style="fill:#215968;fill-opacity:1;fill-rule:evenodd;stroke:none"
           id="path80" /></g></g><g
       id="g82"><g
         id="g84"
         clip-path="url(#clipPath88)"><path
           d="M 3.937e-6,0.01001 H 654.87 v 21.262 H 3.937e-6 Z"
           style="fill:#215968;fill-opacity:1;fill-rule:evenodd;stroke:none"
           id="path90" /></g></g></g></svg>
